<svg version="1.1" xmlns="http://www.w3.org/2000/svg" xmlns:xlink="http://www.w3.org/1999/xlink" width="18.06437" height="13.32035" viewBox="0,0,18.06437,13.32035"><g transform="translate(-230.96781,-173.40071)"><g data-paper-data="{&quot;isPaintingLayer&quot;:true}" fill-rule="evenodd" stroke-miterlimit="10" stroke-dasharray="" stroke-dashoffset="0" style="mix-blend-mode: normal"><g data-paper-data="{&quot;index&quot;:null}"><path d="M240.34653,175.58008c0.48304,-0.08401 0.98708,-0.12601 1.57513,-0.08401c0.98708,0.042 1.93216,0.39903 1.93216,0.39903l2.54121,-1.65913c0.08401,-0.042 0.18902,0.021 0.16801,0.10501l-0.44104,3.75931c-0.12601,-0.16801 2.22618,2.68822 0.73506,5.08241c-1.49112,2.39419 -4.66238,3.46528 -8.6107,2.68822c-3.94832,-0.77706 -4.8724,-3.04525 -4.62038,-4.24234c0.25202,-1.1971 1.74314,-1.63813 1.74314,-1.63813c0,0 0.021,-0.94508 0.69306,-2.10017c0.39903,-0.69306 1.74314,-1.68014 1.74314,-1.68014l0.54604,-2.24718c0.021,-0.08401 0.12601,-0.10501 0.18902,-0.06301z" fill="#ffab19" stroke="#001026" stroke-width="1.2" stroke-linecap="butt" stroke-linejoin="miter"/><path d="M238.89741,181.10352c1.76414,0.12601 4.17934,-1.78515 5.58645,0.46204c1.40711,2.22618 -1.00808,5.25043 -6.09049,4.20034c-3.90632,-0.75606 -4.9144,-2.91924 -4.66238,-4.11633c0.25202,-1.1971 1.70114,-1.57513 1.70114,-1.57513c1.78515,-0.39903 1.95316,0.92408 3.46528,1.02908z" fill="#ffffff" stroke="none" stroke-width="1" stroke-linecap="butt" stroke-linejoin="miter"/><path d="M240.0105,184.90483c-2.20518,0.12601 -3.00324,-1.44912 -3.19226,-2.01616c-0.042,-0.10501 0.042,-0.21002 0.14701,-0.18902c0.31503,0.06301 0.98708,0.12601 2.12117,0.06301c1.2601,-0.08401 2.39419,-0.42003 2.79323,-0.56705c0.08401,-0.021 0.16801,0.042 0.16801,0.12601c0.06301,1.02908 -0.12601,2.37319 -2.03717,2.58321z" fill="#ffffff" stroke="#001026" stroke-width="1.2" stroke-linecap="round" stroke-linejoin="round"/><path d="M234.06702,181.12453c0,0 -1.51212,-0.021 -2.4992,-0.81907" fill="none" stroke="#001026" stroke-width="1.2" stroke-linecap="round" stroke-linejoin="round"/><path d="M233.98301,182.36363c0,0 -0.81907,0.39903 -2.14217,0.29402" fill="none" stroke="#001026" stroke-width="1.2" stroke-linecap="round" stroke-linejoin="round"/><path d="M239.9475,180.8305c0,0.33603 -0.88207,0.86107 -1.2601,0.81907c-0.33603,-0.021 -0.65105,-0.60905 -0.63005,-0.90307c0.021,-0.14701 0.48304,-0.18902 0.92408,-0.18902c0.42003,0 0.98708,0.021 0.96608,0.27302z" fill="#001026" stroke="#001026" stroke-width="1.2" stroke-linecap="round" stroke-linejoin="round"/><path d="M245.89098,181.48156c0.73506,-0.65105 2.54121,-1.2391 2.54121,-1.2391" fill="none" stroke="#001026" stroke-width="1.2" stroke-linecap="round" stroke-linejoin="round"/><path d="M248.28517,182.34263c0,0 -1.55413,0.23102 -2.4572,-0.12601" fill="none" stroke="#001026" stroke-width="1.2" stroke-linecap="round" stroke-linejoin="round"/><g><path d="M238.68739,177.0922c0.58805,0.37803 0.56705,1.44912 -0.042,2.39419c-0.63005,0.94508 -1.59613,1.38611 -2.18418,1.00808c-0.58805,-0.37803 -0.56705,-1.44912 0.042,-2.39419c0.60905,-0.94508 1.59613,-1.40711 2.18418,-1.00808z" fill="#ffffff" stroke="#001026" stroke-width="1.2" stroke-linecap="round" stroke-linejoin="round"/><path d="M236.58722,179.29738c0,-0.23102 0.16801,-0.42003 0.37803,-0.42003c0.21002,0 0.37803,0.18902 0.37803,0.42003c0,0.23102 -0.16801,0.42003 -0.37803,0.42003c-0.21002,0 -0.37803,-0.18902 -0.37803,-0.42003" fill="#001026" stroke="none" stroke-width="1" stroke-linecap="butt" stroke-linejoin="miter"/></g><g><path d="M243.97982,177.74325c0.65105,0.46204 0.60905,1.65913 -0.042,2.58321c-0.63005,0.92408 -1.55413,1.2181 -2.24718,0.81907c-0.56705,-0.39903 -0.60905,-1.53312 0.021,-2.4572c0.63005,-0.92408 1.61713,-1.42812 2.26818,-0.94508z" fill="#ffffff" stroke="#001026" stroke-width="1.2" stroke-linecap="round" stroke-linejoin="round"/><path d="M241.83765,179.90643c0,-0.23102 0.16801,-0.39903 0.37803,-0.42003c0.21002,0 0.37803,0.18902 0.37803,0.42003c0,0.23102 -0.16801,0.42003 -0.37803,0.42003c-0.21002,0 -0.37803,-0.18902 -0.37803,-0.42003" fill="#001026" stroke="none" stroke-width="1" stroke-linecap="butt" stroke-linejoin="miter"/></g></g></g></g></svg>